<svg width="48" height="48" viewBox="0 0 48 48" fill="none" xmlns="http://www.w3.org/2000/svg">
<defs>
<clipPath id="clip0_4307_2780">
<rect width="48" height="48" fill="white"/>
</clipPath>
</defs>
<g clip-path="url(#clip0_4307_2780)">
<path d="M23.9995 40C28.2415 39.9952 32.3084 38.308 35.308 35.3084C38.3075 32.3089 39.9948 28.242 39.9995 24V16C39.9995 11.7565 38.3138 7.68687 35.3132 4.68629C32.3126 1.68571 28.243 0 23.9995 0C19.756 0 15.6864 1.68571 12.6858 4.68629C9.68522 7.68687 7.99951 11.7565 7.99951 16V24C8.00428 28.242 9.69152 32.3089 12.6911 35.3084C15.6906 38.308 19.7575 39.9952 23.9995 40ZM23.9995 4C26.8326 4.00526 29.5727 5.01173 31.7356 6.84159C33.8985 8.67145 35.345 11.2069 35.8195 14H29.9995C29.4691 14 28.9604 14.2107 28.5853 14.5858C28.2102 14.9609 27.9995 15.4696 27.9995 16C27.9995 16.5304 28.2102 17.0391 28.5853 17.4142C28.9604 17.7893 29.4691 18 29.9995 18H35.9995V22H29.9995C29.4691 22 28.9604 22.2107 28.5853 22.5858C28.2102 22.9609 27.9995 23.4696 27.9995 24C27.9995 24.5304 28.2102 25.0391 28.5853 25.4142C28.9604 25.7893 29.4691 26 29.9995 26H35.8195C35.3494 28.795 33.9042 31.333 31.7402 33.1633C29.5763 34.9937 26.8337 35.9981 23.9995 35.9981C21.1653 35.9981 18.4227 34.9937 16.2588 33.1633C14.0949 31.333 12.6496 28.795 12.1795 26H17.9995C18.5299 26 19.0387 25.7893 19.4137 25.4142C19.7888 25.0391 19.9995 24.5304 19.9995 24C19.9995 23.4696 19.7888 22.9609 19.4137 22.5858C19.0387 22.2107 18.5299 22 17.9995 22H11.9995V18H17.9995C18.5299 18 19.0387 17.7893 19.4137 17.4142C19.7888 17.0391 19.9995 16.5304 19.9995 16C19.9995 15.4696 19.7888 14.9609 19.4137 14.5858C19.0387 14.2107 18.5299 14 17.9995 14H12.1795C12.6541 11.2069 14.1006 8.67145 16.2635 6.84159C18.4263 5.01173 21.1664 4.00526 23.9995 4Z" fill="#3F46BB"/>
<path d="M46 24C45.4696 24 44.9609 24.2107 44.5858 24.5858C44.2107 24.9609 44 25.4696 44 26C43.9947 30.7723 42.0966 35.3476 38.7221 38.7221C35.3476 42.0966 30.7723 43.9947 26 44H22C17.2279 43.9942 12.6529 42.0959 9.27851 38.7215C5.90411 35.3471 4.00582 30.7721 4 26C4 25.4696 3.78929 24.9609 3.41421 24.5858C3.03914 24.2107 2.53043 24 2 24C1.46957 24 0.960859 24.2107 0.585786 24.5858C0.210714 24.9609 0 25.4696 0 26C0.00688094 31.8327 2.32694 37.4244 6.45125 41.5487C10.5756 45.6731 16.1673 47.9931 22 48H26C31.8327 47.9931 37.4244 45.6731 41.5487 41.5487C45.6731 37.4244 47.9931 31.8327 48 26C48 25.4696 47.7893 24.9609 47.4142 24.5858C47.0391 24.2107 46.5304 24 46 24Z" fill="#3F46BB"/>
</g>
</svg>
